<?xml version="1.0" standalone="no"?>
<!DOCTYPE svg PUBLIC "-//W3C//DTD SVG 20010904//EN"
 "http://www.w3.org/TR/2001/REC-SVG-20010904/DTD/svg10.dtd">
<svg version="1.0" xmlns="http://www.w3.org/2000/svg"
 width="512.000000pt" height="512.000000pt" viewBox="0 0 512.000000 512.000000"
 preserveAspectRatio="xMidYMid meet">

<g transform="translate(0.000000,512.000000) scale(0.100000,-0.100000)"
fill="#000000" stroke="none">
<path d="M2960 4171 c-199 -54 -362 -187 -454 -371 -25 -51 -46 -98 -46 -106
0 -11 -125 -14 -779 -16 l-779 -3 -39 -31 c-79 -64 -106 -137 -82 -222 17 -63
80 -125 141 -140 34 -9 257 -12 792 -12 632 0 746 -2 746 -14 0 -8 21 -56 47
-107 38 -77 62 -110 133 -180 72 -73 101 -94 180 -132 381 -184 810 -22 975
367 l28 66 232 0 c271 0 313 8 368 69 92 102 67 255 -52 318 -43 22 -52 23
-296 23 l-252 0 -27 69 c-79 201 -268 367 -482 421 -100 26 -262 26 -354 1z
m322 -424 c61 -35 123 -107 142 -164 20 -59 20 -157 0 -216 -20 -61 -84 -131
-148 -165 -43 -23 -64 -27 -136 -27 -100 0 -154 21 -218 86 -63 63 -86 120
-87 214 0 130 53 217 168 275 58 30 68 31 148 28 70 -3 93 -9 131 -31z"/>
<path d="M1780 2485 c-188 -42 -364 -182 -448 -356 l-37 -76 -180 -4 c-175 -4
-181 -5 -227 -31 -141 -84 -132 -292 18 -363 25 -12 70 -15 204 -15 165 0 172
-1 177 -20 12 -45 73 -158 116 -216 153 -202 438 -299 691 -234 123 31 209 81
306 179 82 83 118 138 164 254 l15 37 881 0 c846 0 882 1 918 19 72 37 112
102 112 181 0 58 -18 100 -63 148 -61 63 -39 62 -998 62 l-867 0 -17 43 c-65
163 -233 317 -409 373 -102 33 -258 41 -356 19z m255 -419 c101 -47 156 -131
157 -240 1 -154 -110 -266 -262 -266 -200 0 -325 202 -237 383 16 32 44 70 62
84 81 65 192 81 280 39z"/>
</g>
</svg>
