<?xml version="1.0" standalone="no"?>
<!DOCTYPE svg PUBLIC "-//W3C//DTD SVG 20010904//EN"
 "http://www.w3.org/TR/2001/REC-SVG-20010904/DTD/svg10.dtd">
<svg version="1.0" xmlns="http://www.w3.org/2000/svg"
 width="512.000000pt" height="512.000000pt" viewBox="0 0 512.000000 512.000000"
 preserveAspectRatio="xMidYMid meet">

<g transform="translate(0.000000,512.000000) scale(0.100000,-0.100000)"
fill="#000000" stroke="none">
<path d="M1199 5106 c-87 -31 -149 -93 -177 -175 -9 -25 -12 -237 -12 -766 0
-696 1 -733 18 -748 25 -22 48 -21 72 3 20 20 20 33 20 749 l0 728 23 33 c12
18 35 43 50 54 l28 21 1490 3 1489 2 -45 -61 c-85 -116 -85 -115 -85 -719 0
-498 1 -528 18 -543 25 -22 48 -21 72 3 19 19 20 33 20 235 l0 215 354 0 355
0 15 22 c22 31 23 519 1 621 -33 158 -151 281 -310 323 -73 20 -3342 20 -3396
0z m3389 -111 c78 -23 144 -82 184 -162 l33 -67 3 -258 3 -258 -316 0 -316 0
3 268 c3 258 4 269 27 312 42 81 118 145 201 171 42 12 124 10 178 -6z"/>
<path d="M1582 4448 c-16 -16 -15 -63 2 -77 10 -8 285 -10 1021 -9 935 3 1009
4 1019 20 7 12 7 26 0 45 l-9 28 -1011 3 c-777 2 -1013 -1 -1022 -10z"/>
<path d="M2093 4005 c-104 -48 -198 -159 -235 -278 -21 -69 -25 -198 -8 -257
5 -19 10 -41 10 -48 0 -16 -73 -49 -190 -87 -100 -32 -125 -52 -116 -89 11
-46 38 -51 131 -22 46 14 114 39 151 55 l68 29 27 -47 c63 -110 141 -156 264
-155 96 0 159 24 221 85 l40 39 30 -31 c36 -39 118 -79 162 -79 40 0 99 24
131 53 13 12 39 46 58 75 l34 53 35 -30 c68 -60 134 -80 202 -61 42 11 103 61
133 109 15 24 16 24 57 8 82 -33 161 -16 227 47 48 46 56 73 27 99 -27 25 -57
21 -94 -13 -18 -17 -41 -33 -51 -36 -30 -9 -84 5 -115 30 -55 47 -85 39 -121
-33 -31 -61 -80 -111 -110 -111 -29 0 -107 56 -137 99 -55 78 -97 69 -142 -33
-39 -86 -93 -146 -131 -146 -40 0 -95 43 -146 115 -35 48 -53 65 -70 65 -33 0
-52 -23 -60 -70 -18 -104 -152 -161 -262 -111 -43 20 -103 90 -103 121 0 10
25 33 58 55 31 21 93 74 137 119 102 103 165 220 165 307 0 77 -38 136 -111
173 -65 32 -99 33 -166 1z m142 -121 c15 -16 25 -39 25 -57 0 -35 -39 -115
-88 -181 -34 -44 -186 -176 -204 -176 -29 0 -28 174 1 250 56 148 199 236 266
164z"/>
<path d="M4075 3485 c-30 -30 -31 -54 -4 -89 40 -50 119 -24 119 40 0 68 -68
97 -115 49z"/>
<path d="M965 3191 c-42 -10 -66 -25 -96 -58 -15 -15 -214 -304 -442 -640
-440 -649 -440 -649 -417 -731 17 -64 51 -96 244 -225 175 -117 183 -121 242
-125 42 -3 70 1 90 11 29 16 29 15 84 -42 30 -31 77 -75 103 -97 l48 -39 -44
-67 c-69 -103 -80 -196 -32 -288 34 -66 136 -130 209 -130 25 0 26 -2 26 -52
0 -105 78 -211 174 -238 24 -7 67 -10 95 -9 l51 4 15 -50 c18 -64 71 -126 132
-155 63 -29 156 -31 212 -3 l40 20 11 -28 c33 -78 136 -142 230 -142 76 0 132
26 185 85 29 32 49 47 57 42 7 -4 68 -50 135 -101 138 -106 189 -133 253 -133
115 0 249 120 250 223 0 16 3 27 8 25 59 -31 95 -40 150 -40 120 -1 224 80
253 197 l10 41 57 -29 c50 -25 65 -28 122 -24 36 2 81 12 100 22 78 39 135
116 146 198 l6 44 39 -7 c51 -10 132 4 173 30 78 47 136 146 136 230 0 40 -25
115 -50 150 -12 17 -230 210 -484 428 -253 218 -559 481 -679 584 -120 104
-223 188 -228 188 -25 0 -345 -102 -355 -113 -6 -7 -59 -71 -118 -144 -123
-152 -148 -175 -236 -217 -60 -29 -73 -31 -170 -31 -88 0 -113 4 -155 23 -52
24 -65 36 -65 65 0 19 316 471 352 504 27 24 544 341 617 377 61 31 154 46
222 35 28 -4 159 -47 292 -95 234 -84 245 -87 332 -88 75 -1 118 6 264 43 96
24 177 40 178 35 2 -5 156 -270 343 -589 l338 -580 -56 -58 c-51 -53 -177
-144 -260 -189 -49 -26 -38 -98 14 -98 54 0 198 91 316 199 l57 52 52 -17 c43
-14 60 -15 94 -6 62 17 413 221 441 257 12 17 29 52 36 78 10 41 10 55 -3 90
-13 37 -659 1158 -745 1294 -41 65 -92 93 -167 93 -49 0 -66 -8 -236 -105
-100 -57 -195 -114 -211 -125 -37 -26 -70 -96 -70 -147 l0 -41 -172 -42 c-221
-54 -232 -53 -485 39 -280 102 -313 111 -408 111 -124 0 -183 -23 -398 -155
-103 -63 -196 -119 -207 -125 -14 -8 -37 -4 -92 14 -40 13 -123 33 -184 44
-61 11 -138 30 -171 42 l-61 22 5 61 c8 104 -13 130 -202 260 -238 162 -267
175 -340 158z m80 -119 c84 -47 336 -224 346 -243 6 -12 9 -33 7 -48 -4 -26
-812 -1226 -843 -1251 -37 -31 -72 -16 -252 106 -183 124 -203 146 -186 194
18 49 835 1241 857 1250 30 12 37 11 71 -8z m3212 -24 c33 -37 743 -1267 750
-1298 8 -43 -25 -70 -224 -184 -196 -112 -214 -115 -258 -48 -95 149 -735
1267 -735 1286 0 40 29 63 205 166 186 108 224 119 262 78z m-2724 -462 c37
-14 119 -35 181 -46 171 -30 169 -29 97 -74 -57 -35 -75 -57 -234 -279 -205
-289 -210 -297 -204 -359 5 -63 45 -114 112 -143 159 -71 352 -55 500 40 65
42 98 76 216 220 l98 120 129 39 130 38 643 -552 c354 -304 654 -563 666 -576
104 -113 -14 -301 -158 -252 -24 8 -171 120 -383 293 -190 154 -357 284 -371
289 -30 12 -65 -15 -65 -49 0 -28 17 -43 354 -315 311 -252 323 -264 313 -346
-12 -111 -139 -171 -229 -110 -19 13 -176 138 -349 278 -358 290 -361 292
-389 283 -26 -8 -43 -40 -35 -65 4 -11 122 -114 264 -229 142 -115 268 -222
279 -236 65 -82 21 -206 -83 -234 -69 -19 -98 -3 -310 169 -132 107 -204 160
-221 160 -28 0 -58 -41 -50 -68 3 -10 58 -60 122 -112 125 -101 142 -120 154
-175 24 -105 -86 -214 -179 -178 -14 5 -87 56 -162 114 l-136 104 47 70 c26
38 52 85 58 104 25 73 8 168 -43 235 -29 38 -111 86 -147 86 -36 0 -38 7 -17
53 39 87 13 213 -57 279 -71 66 -187 87 -273 48 -24 -11 -44 -20 -46 -20 -2 0
-6 11 -9 25 -9 36 -72 102 -120 128 -31 16 -59 21 -111 21 -81 0 -118 -15
-181 -76 -39 -37 -42 -39 -48 -20 -11 33 -100 110 -142 121 -72 20 -137 14
-200 -19 l-57 -31 -39 27 c-21 15 -66 56 -99 91 l-60 65 18 27 c10 15 178 263
373 550 255 376 359 521 370 517 8 -2 45 -16 83 -30z m-396 -1316 c47 -28 68
-76 64 -145 -2 -28 -135 -216 -168 -237 -87 -55 -207 15 -207 122 0 41 8 58
65 141 36 52 80 104 99 117 41 28 103 29 147 2z m461 -39 c42 -29 67 -97 54
-144 -11 -39 -285 -437 -332 -482 -21 -20 -42 -29 -78 -33 -94 -9 -156 51
-149 144 3 48 15 67 163 279 174 249 195 270 271 262 22 -2 55 -14 71 -26z
m377 -131 c46 -28 69 -77 63 -133 -5 -39 -32 -83 -193 -316 -168 -241 -193
-273 -232 -292 -50 -24 -86 -21 -139 11 -44 28 -72 98 -58 149 14 48 366 550
407 579 40 28 107 30 152 2z m203 -396 c53 -34 79 -124 51 -177 -7 -12 -53
-80 -102 -151 -77 -109 -98 -132 -134 -148 -94 -41 -193 24 -193 127 0 36 14
61 108 195 89 128 113 157 142 167 40 14 94 8 128 -13z"/>
<path d="M433 1963 c-30 -6 -70 -49 -78 -83 -8 -37 18 -93 51 -111 105 -56
213 79 128 161 -30 29 -63 40 -101 33z"/>
<path d="M4595 1887 c-39 -39 -45 -78 -21 -126 36 -68 152 -66 184 4 32 70 -8
142 -85 152 -39 5 -46 2 -78 -30z"/>
</g>
</svg>
